<svg width="33" height="33" viewBox="0 0 33 33" fill="none" xmlns="http://www.w3.org/2000/svg">
<path d="M16.3804 17.7813C16.4146 17.7813 16.4487 17.7813 16.4897 17.7813C16.5034 17.7813 16.5171 17.7813 16.5307 17.7813C16.5512 17.7813 16.5786 17.7813 16.5991 17.7813C18.6013 17.7472 20.2209 17.0433 21.4168 15.697C24.0478 12.7312 23.6105 7.64693 23.5626 7.16173C23.3918 3.51936 21.6697 1.77677 20.2483 0.963554C19.189 0.355353 17.9521 0.0273349 16.5717 0H16.5239C16.5171 0 16.5034 0 16.4966 0H16.4556C15.697 0 14.2073 0.123007 12.779 0.936219C11.3439 1.74943 9.5945 3.49203 9.42366 7.16173C9.37583 7.64693 8.93847 12.7312 11.5694 15.697C12.7585 17.0433 14.3781 17.7472 16.3804 17.7813ZM11.2483 7.33257C11.2483 7.31207 11.2551 7.29157 11.2551 7.2779C11.4806 2.37813 14.959 1.85194 16.4487 1.85194H16.4761C16.4897 1.85194 16.5102 1.85194 16.5307 1.85194C18.3758 1.89294 21.5125 2.64465 21.7243 7.2779C21.7243 7.29841 21.7243 7.31891 21.7312 7.33257C21.738 7.38041 22.2164 12.0273 20.0433 14.4738C19.1822 15.4442 18.0341 15.9226 16.5239 15.9362C16.5102 15.9362 16.5034 15.9362 16.4897 15.9362C16.4761 15.9362 16.4692 15.9362 16.4556 15.9362C14.9521 15.9226 13.7972 15.4442 12.943 14.4738C10.7767 12.041 11.2414 7.37358 11.2483 7.33257Z" fill="black" fill-opacity="0.5"/>
<path d="M30.533 26.2141C30.533 26.2073 30.533 26.2005 30.533 26.1936C30.533 26.139 30.5262 26.0843 30.5262 26.0228C30.4852 24.6697 30.3963 21.5057 27.4305 20.4943C27.41 20.4875 27.3827 20.4806 27.3622 20.4738C24.2802 19.6879 21.7175 17.9112 21.6902 17.8907C21.2733 17.5968 20.6993 17.6993 20.4054 18.1162C20.1116 18.533 20.2141 19.1071 20.631 19.4009C20.7471 19.4829 23.4669 21.3759 26.8701 22.2506C28.4624 22.8178 28.6401 24.5194 28.6879 26.0775C28.6879 26.139 28.6879 26.1936 28.6947 26.2483C28.7016 26.8633 28.6606 27.8132 28.5512 28.3599C27.4442 28.9886 23.1048 31.1617 16.5034 31.1617C9.92936 31.1617 5.56262 28.9818 4.44872 28.3531C4.33939 27.8064 4.29155 26.8565 4.30522 26.2415C4.30522 26.1868 4.31205 26.1321 4.31205 26.0706C4.35989 24.5125 4.53756 22.8109 6.12982 22.2437C9.53301 21.369 12.2528 19.4693 12.369 19.3941C12.7859 19.1002 12.8884 18.5262 12.5945 18.1093C12.3007 17.6925 11.7266 17.59 11.3098 17.8838C11.2824 17.9043 8.73346 19.6811 5.63779 20.467C5.61046 20.4738 5.58995 20.4806 5.56945 20.4875C2.60362 21.5057 2.51478 24.6697 2.47378 26.016C2.47378 26.0775 2.47378 26.1321 2.46695 26.1868C2.46695 26.1936 2.46695 26.2005 2.46695 26.2073C2.46011 26.5626 2.45328 28.3873 2.81547 29.303C2.8838 29.4806 3.00681 29.631 3.17082 29.7335C3.37583 29.8702 8.28927 33 16.5102 33C24.7312 33 29.6446 29.8633 29.8496 29.7335C30.0068 29.631 30.1367 29.4806 30.205 29.303C30.5467 28.3941 30.5398 26.5695 30.533 26.2141Z" fill="black" fill-opacity="0.5"/>
</svg>
