<svg width="26" height="29" viewBox="0 0 26 29" fill="none" xmlns="http://www.w3.org/2000/svg">
<path d="M8.7813 0.9375H24.7188C24.8431 0.9375 24.9624 0.986885 25.0503 1.07479C25.1382 1.1627 25.1876 1.28193 25.1876 1.40625V12.6562C25.1876 12.7806 25.1382 12.8998 25.0503 12.9877C24.9624 13.0756 24.8431 13.125 24.7188 13.125H19.1247C19.0253 13.4435 18.9089 13.7565 18.776 14.0625H21.4376V15H18.3049C17.1274 17.0271 15.2357 18.5418 13.0001 19.2473V21.0938C13.0001 21.2181 12.9507 21.3373 12.8628 21.4252C12.7749 21.5131 12.6556 21.5625 12.5313 21.5625H10.6563V22.2656C10.6563 22.4521 10.7304 22.6309 10.8622 22.7628C10.9941 22.8947 11.1729 22.9688 11.3594 22.9688H19.7969C20.232 22.9688 20.6493 23.1416 20.957 23.4493C21.2647 23.757 21.4376 24.1743 21.4376 24.6094C21.4376 25.0445 21.2647 25.4618 20.957 25.7695C20.6493 26.0771 20.232 26.25 19.7969 26.25H7.14068C6.9542 26.25 6.77535 26.3241 6.64349 26.4559C6.51163 26.5878 6.43755 26.7666 6.43755 26.9531C6.43755 27.1396 6.51163 27.3184 6.64349 27.4503C6.77535 27.5822 6.9542 27.6562 7.14068 27.6562H17.2188V28.5938H7.14068C6.70556 28.5937 6.28826 28.4209 5.98058 28.1132C5.6729 27.8055 5.50005 27.3882 5.50005 26.9531C5.50005 26.518 5.6729 26.1007 5.98058 25.793C6.28826 25.4854 6.70556 25.3125 7.14068 25.3125H19.7969C19.9834 25.3125 20.1623 25.2384 20.2941 25.1066C20.426 24.9747 20.5001 24.7959 20.5001 24.6094C20.5001 24.4229 20.426 24.2441 20.2941 24.1122C20.1623 23.9803 19.9834 23.9062 19.7969 23.9062H11.3594C10.9243 23.9062 10.507 23.7334 10.1993 23.4257C9.89165 23.118 9.7188 22.7007 9.7188 22.2656V21.5625H7.8438C7.71948 21.5625 7.60025 21.5131 7.51235 21.4252C7.42444 21.3373 7.37505 21.2181 7.37505 21.0938V19.2553C5.38362 18.6299 3.658 17.3575 2.47192 15.64C1.28583 13.9224 0.707199 11.8579 0.827792 9.77408C0.948385 7.69025 1.7613 5.70634 3.1376 4.13703C4.5139 2.56773 6.37477 1.50288 8.42505 1.11141C8.46784 1.05783 8.522 1.01444 8.58361 0.984364C8.64522 0.954287 8.71275 0.93828 8.7813 0.9375ZM9.25005 9.84375H24.2501V8.90625H9.25005V9.84375ZM9.25005 1.875V7.96875H24.2501V1.875H9.25005ZM24.2501 10.7812H9.25005V12.1875H24.2501V10.7812ZM8.31255 20.625H12.0626V19.4897C10.8265 19.7504 9.54987 19.7535 8.31255 19.4986V20.625ZM1.75005 10.3125C1.75045 12.1223 2.33276 13.884 3.411 15.3376C4.48925 16.7911 6.0063 17.8594 7.73817 18.3848C9.47004 18.9102 11.3249 18.8648 13.029 18.2553C14.7331 17.6458 16.1961 16.5046 17.2019 15H12.0626V14.0625H17.7415C17.894 13.7585 18.0277 13.4454 18.1418 13.125H8.7813C8.65698 13.125 8.53775 13.0756 8.44985 12.9877C8.36194 12.8998 8.31255 12.7806 8.31255 12.6562V2.09062C6.44478 2.50669 4.77548 3.54902 3.58176 5.04458C2.38805 6.54014 1.74171 8.39897 1.75005 10.3125Z" fill="#6B4F81" fill-opacity="0.5"/>
</svg>
