<svg width="50" height="50" viewBox="0 0 50 50" fill="none" xmlns="http://www.w3.org/2000/svg">
<g clip-path="url(#clip0)">
<path d="M27.3462 19.2512V24.5228C27.3462 25.0828 27.8001 25.5367 28.3601 25.5367C28.92 25.5367 29.3739 25.0828 29.3739 24.5228V19.2512H27.3462Z" fill="#F9677F"/>
<path d="M30.9151 19.2512H29.3741V24.5228C29.3741 24.5754 29.3663 24.626 29.3586 24.6765C29.3725 24.6767 29.3862 24.6785 29.4 24.6785C31.0165 24.6785 32.3268 23.3682 32.3268 21.7517C32.3266 20.6908 31.7602 19.7644 30.9151 19.2512Z" fill="#FC3850"/>
<path d="M12.3674 17.9426C12.9273 17.9426 13.3812 18.3965 13.3812 18.9564V24.5228C13.3812 25.0828 12.9273 25.5367 12.3674 25.5367C11.8074 25.5367 11.3535 25.0828 11.3535 24.5228V18.9564C11.3535 18.3965 11.8074 17.9426 12.3674 17.9426Z" fill="#F9677F"/>
<path d="M11.3276 18.825C11.3407 18.825 11.3536 18.8264 11.3667 18.8266C11.3612 18.8695 11.3536 18.9119 11.3536 18.9563V24.5227C11.3536 24.5752 11.3614 24.6258 11.369 24.6764C11.3552 24.6766 11.3415 24.6783 11.3276 24.6783C9.71123 24.6783 8.40088 23.368 8.40088 21.7516C8.40107 20.1354 9.71123 18.825 11.3276 18.825Z" fill="#FC3850"/>
<path d="M18.7893 32.4707C18.7631 32.4707 18.7366 32.4697 18.71 32.4676C17.9317 32.4072 17.2059 32.2916 16.5528 32.1242C16.0129 31.9859 15.6873 31.4361 15.8258 30.8963C15.9641 30.3564 16.5145 30.0305 17.0537 30.1693C17.5942 30.3078 18.2039 30.4041 18.8664 30.4555C19.4221 30.4986 19.8375 30.984 19.7944 31.5396C19.7532 32.0687 19.3112 32.4707 18.7893 32.4707Z" fill="#FC3850"/>
<path d="M20.636 14.1895V5.95274C20.5428 5.9504 20.4503 5.94571 20.3565 5.94571C14.3676 5.94571 9.49536 10.818 9.49536 16.8068V19.4715C9.99712 19.0678 10.6336 18.825 11.3278 18.825C11.3409 18.825 11.3538 18.8264 11.3668 18.8266C11.3614 18.8695 11.3538 18.9119 11.3538 18.9563C11.3538 18.3963 11.8077 17.9424 12.3676 17.9424C12.9276 17.9424 13.3815 18.3963 13.3815 18.9563C13.3815 18.9531 13.3805 18.9502 13.3805 18.9471C13.4536 18.8008 13.6215 18.7119 13.7946 18.7482C15.0645 19.0141 18.8415 19.4684 21.4018 16.2486C21.4985 16.1272 21.6516 16.0834 21.7903 16.1184C21.1045 15.7469 20.636 15.0203 20.636 14.1895Z" fill="#EDF4FC"/>
<path d="M20.6358 14.1895V7.86055C20.5427 7.85762 20.4501 7.85352 20.3563 7.85352C15.4194 7.85352 11.4028 11.8701 11.4028 16.807V18.6598C11.5304 18.2457 11.9114 17.9428 12.3673 17.9428C12.9272 17.9428 13.3812 18.3967 13.3812 18.9566C13.3812 18.9535 13.3802 18.9506 13.3802 18.9475C13.4532 18.8012 13.6212 18.7123 13.7942 18.7486C15.0642 19.0145 18.8411 19.4688 21.4015 16.249C21.4981 16.1275 21.6513 16.0838 21.7899 16.1188C21.1044 15.7469 20.6358 15.0203 20.6358 14.1895Z" fill="#843418"/>
<path d="M34.9996 48.2932L34.4891 39.1287C34.4217 37.9199 33.5764 36.8955 32.4024 36.6L26.9584 35.2297L23.6836 33.6151L22.1789 36.7194C22.067 36.9502 21.833 37.0969 21.5766 37.0969C21.5098 37.0969 19.2115 37.0969 19.226 37.0969C18.9627 37.0969 18.7239 36.9424 18.6156 36.7024L17.2248 33.6151L13.95 35.2297L8.50608 36.6C7.33205 36.8955 6.48655 37.9201 6.41936 39.1287L5.90881 48.2932C5.8719 48.9549 6.39865 49.5117 7.06135 49.5117H33.8473C34.5098 49.5117 35.0364 48.9549 34.9996 48.2932Z" fill="#1387CE"/>
<path d="M20.3521 31.7635C20.1523 31.7635 19.9551 31.752 19.7594 31.7354C19.6389 32.1647 19.2445 32.4707 18.7895 32.4707C18.7633 32.4707 18.7369 32.4697 18.7102 32.4676C18.1885 32.4272 17.693 32.3596 17.2246 32.2707V33.615L18.6154 36.7024C18.7236 36.9424 18.9625 37.0969 19.2258 37.0969H21.5764C21.833 37.0969 22.067 36.9502 22.1787 36.7193L23.6834 33.615V30.9158C22.691 31.4559 21.5557 31.7635 20.3521 31.7635Z" fill="#F9C1A8"/>
<path d="M27.3464 19.2512C27.3114 19.2439 26.3897 19.334 25.6585 18.5656L24.8057 19.457C24.495 19.7818 23.9469 19.5619 23.9469 19.1125V17.0904C23.9469 16.699 23.6295 16.3816 23.2381 16.3816C23.0028 16.3619 22.4442 16.4726 21.7901 16.1183C21.6514 16.0834 21.4983 16.1271 21.4016 16.2486C18.8415 19.4685 15.0645 19.014 13.7946 18.7484C13.6213 18.7123 13.4536 18.8012 13.3805 18.9473C13.3805 18.9504 13.3815 18.9533 13.3815 18.9564V24.5228C13.3815 24.6139 13.3657 24.7006 13.343 24.7846C13.3532 27.0619 14.4635 29.0918 16.1672 30.3674C16.4071 30.1719 16.7315 30.0863 17.0538 30.1693C17.5942 30.3078 18.204 30.4041 18.8665 30.4555C19.4221 30.4986 19.8376 30.984 19.7944 31.5396C19.7891 31.6076 19.7768 31.6732 19.759 31.7363C19.9547 31.7529 20.1524 31.7635 20.3522 31.7635C24.2077 31.7635 27.3622 28.609 27.3622 24.7535V24.6795C27.3542 24.6281 27.3464 24.5765 27.3464 24.5228V19.2512Z" fill="#F9C1A8"/>
<path d="M41.9012 3.358H40.7823V14.1894C40.7823 15.3951 39.7958 16.3816 38.5901 16.3816H28.0504C27.8571 16.3816 27.6719 16.4607 27.5383 16.6004L25.6584 18.5656C26.0584 18.9859 26.6204 19.2512 27.243 19.2512H36.679C36.8723 19.2512 37.0575 19.3303 37.1911 19.4699L39.9237 22.3268C40.2344 22.6516 40.7825 22.4316 40.7825 21.9822V19.96C40.7825 19.5686 41.0999 19.2512 41.4913 19.2512H41.9014C43.1071 19.2512 44.0936 18.2646 44.0936 17.059V5.55019C44.0934 4.34433 43.1071 3.358 41.9012 3.358Z" fill="#45BDF0"/>
<path d="M38.5901 0.488281H22.8282C21.6225 0.488281 20.636 1.4748 20.636 2.68047V14.1895C20.636 15.3951 21.6225 16.3816 22.8282 16.3816H23.2383C23.6297 16.3816 23.9471 16.699 23.9471 17.0904V19.1127C23.9471 19.5621 24.4952 19.782 24.8059 19.4572L27.5385 16.6004C27.6723 16.4605 27.8573 16.3816 28.0506 16.3816H38.5903C39.796 16.3816 40.7825 15.3951 40.7825 14.1895V2.68047C40.7823 1.4748 39.796 0.488281 38.5901 0.488281Z" fill="#45BDF0"/>
<path d="M25.4883 9.76562C26.0816 9.76562 26.5625 9.28468 26.5625 8.69141C26.5625 8.09813 26.0816 7.61719 25.4883 7.61719C24.895 7.61719 24.4141 8.09813 24.4141 8.69141C24.4141 9.28468 24.895 9.76562 25.4883 9.76562Z" fill="#EDF4FC"/>
<path d="M30.4199 9.76562C31.0132 9.76562 31.4941 9.28468 31.4941 8.69141C31.4941 8.09813 31.0132 7.61719 30.4199 7.61719C29.8266 7.61719 29.3457 8.09813 29.3457 8.69141C29.3457 9.28468 29.8266 9.76562 30.4199 9.76562Z" fill="#EDF4FC"/>
<path d="M35.3516 9.76562C35.9448 9.76562 36.4258 9.28468 36.4258 8.69141C36.4258 8.09813 35.9448 7.61719 35.3516 7.61719C34.7583 7.61719 34.2773 8.09813 34.2773 8.69141C34.2773 9.28468 34.7583 9.76562 35.3516 9.76562Z" fill="#EDF4FC"/>
<path d="M20.4531 40.6699C20.1906 40.6699 19.9648 40.4514 19.9648 40.1817C19.9648 39.74 20.5066 39.5436 20.7988 39.836C20.8906 39.9258 20.9414 40.0527 20.9414 40.1817C20.9414 40.46 20.7123 40.6699 20.4531 40.6699Z" fill="black"/>
<path d="M20.1095 43.6504C19.9103 43.4514 19.9238 43.1447 20.1095 42.959C20.2911 42.7773 20.6173 42.7773 20.7989 42.959C20.8907 43.0508 20.9415 43.1758 20.9415 43.3047C20.9415 43.7406 20.4138 43.9545 20.1095 43.6504Z" fill="black"/>
<path d="M20.4532 46.916C20.2592 46.916 20.0762 46.7955 20.004 46.6152C19.9309 46.4596 19.9559 46.2354 20.1094 46.082C20.3979 45.7936 20.9415 45.9795 20.9415 46.4277C20.9415 46.7043 20.7174 46.916 20.4532 46.916Z" fill="black"/>
<path d="M20.454 28.3592C19.3896 28.3592 18.3982 27.832 17.8015 26.949C17.6505 26.7256 17.7093 26.4221 17.9328 26.2711C18.156 26.1203 18.4595 26.1789 18.6107 26.4024C19.0253 27.0162 19.7144 27.3826 20.4539 27.3826C21.1933 27.3826 21.8824 27.0162 22.297 26.4024C22.448 26.1787 22.7515 26.1201 22.975 26.2711C23.1984 26.4221 23.2572 26.7256 23.1062 26.949C22.5097 27.832 21.5183 28.3592 20.454 28.3592Z" fill="black"/>
<path d="M17.7812 22.8262C17.5187 22.8262 17.293 22.6156 17.293 22.3379C17.293 22.024 17.5865 21.7961 17.877 21.8594C18.0572 21.893 18.2221 22.0397 18.2598 22.2422C18.3174 22.5469 18.09 22.8262 17.7812 22.8262Z" fill="black"/>
<path d="M23.127 22.8262C22.8463 22.8262 22.6387 22.5961 22.6387 22.3379C22.6387 22.016 22.9385 21.7992 23.2227 21.8594C23.4549 21.9025 23.6152 22.1141 23.6152 22.3379C23.6152 22.6053 23.3939 22.8262 23.127 22.8262Z" fill="black"/>
<path d="M33.8469 50H7.06095C6.61154 50 6.17658 49.8127 5.8676 49.4861C5.55861 49.1596 5.39572 48.7149 5.42072 48.266L5.93127 39.1014C6.01095 37.6715 6.99748 36.476 8.38635 36.1264L13.7801 34.7688L17.0084 33.177C17.127 33.1184 17.2647 33.1108 17.3893 33.1553C17.5139 33.2 17.6151 33.2936 17.6695 33.4143L19.0604 36.5016C19.0895 36.5664 19.1543 36.6082 19.2256 36.6082H21.5762C21.6451 36.6082 21.7092 36.5682 21.7391 36.5063L23.244 33.4018C23.3008 33.2846 23.4018 33.1951 23.5248 33.1529C23.6477 33.1108 23.7824 33.1193 23.8992 33.177L27.1276 34.7688L32.5213 36.1264C33.9102 36.476 34.8967 37.6715 34.9764 39.1014L35.4869 48.2658C35.5119 48.7147 35.349 49.1594 35.0401 49.4859C34.7315 49.8127 34.2965 50 33.8469 50ZM16.9869 34.2764L14.1656 35.6676C14.1348 35.6828 14.1024 35.6947 14.069 35.7031L8.62482 37.0734C7.65275 37.3182 6.96213 38.1551 6.90646 39.1559L6.39592 48.3203C6.38556 48.5049 6.45002 48.6807 6.57717 48.8151C6.70431 48.9494 6.87619 49.0234 7.06095 49.0234H33.8469C34.0319 49.0234 34.2037 48.9494 34.3311 48.8151C34.458 48.6807 34.5225 48.5051 34.5123 48.3203L34.0018 39.1559C33.9461 38.1549 33.2555 37.3182 32.2832 37.0734L26.8393 35.7031C26.8059 35.6947 26.7735 35.6828 26.7426 35.6676L23.9086 34.2703L22.6184 36.9322C22.4264 37.3287 22.0174 37.585 21.5766 37.585H19.2256C18.7711 37.585 18.3569 37.3172 18.1701 36.9027L16.9869 34.2764Z" fill="black"/>
<path d="M29.449 50C29.1792 50 28.9607 49.7815 28.9607 49.5117V44.6938C28.9607 44.424 29.1792 44.2055 29.449 44.2055C29.7187 44.2055 29.9373 44.424 29.9373 44.6938V49.5117C29.9373 49.7815 29.7187 50 29.449 50Z" fill="black"/>
<path d="M11.4587 50C11.189 50 10.9705 49.7815 10.9705 49.5117V44.6938C10.9705 44.424 11.189 44.2055 11.4587 44.2055C11.7285 44.2055 11.947 44.424 11.947 44.6938V49.5117C11.947 49.7815 11.7285 50 11.4587 50Z" fill="black"/>
<path d="M28.3599 26.025C27.5317 26.025 26.8579 25.3512 26.8579 24.5228V19.2512C26.8579 18.9814 27.0765 18.7629 27.3462 18.7629H29.3739C29.6437 18.7629 29.8622 18.9814 29.8622 19.2512V24.5228C29.8622 25.3512 29.1882 26.025 28.3599 26.025ZM27.8345 19.7394V24.5228C27.8345 24.8127 28.0702 25.0484 28.3599 25.0484C28.6497 25.0484 28.8854 24.8127 28.8854 24.5228V19.7394H27.8345Z" fill="black"/>
<path d="M29.3998 25.1668C29.3811 25.1668 29.3627 25.166 29.3442 25.1646C29.2033 25.1617 29.0727 25.0982 28.9822 24.9904C28.8916 24.8826 28.8543 24.741 28.8758 24.6017C28.8799 24.5758 28.8856 24.55 28.8856 24.5228V19.2512C28.8856 18.9814 29.1041 18.7629 29.3738 18.7629H30.9151C31.0045 18.7629 31.092 18.7873 31.1686 18.8338C32.1992 19.4598 32.8149 20.5506 32.8149 21.7515C32.8149 23.6348 31.2828 25.1668 29.3998 25.1668ZM29.8623 19.7394V24.1476C30.9828 23.9338 31.8383 22.9408 31.8383 21.7515C31.8383 20.9383 31.4422 20.1953 30.7719 19.7392H29.8623V19.7394Z" fill="black"/>
<path d="M12.3674 26.025C11.5391 26.025 10.8652 25.3512 10.8652 24.5228V18.9564C10.8652 18.1281 11.5391 17.4543 12.3674 17.4543C13.1957 17.4543 13.8695 18.1281 13.8695 18.9564V24.5228C13.8695 25.3512 13.1957 26.025 12.3674 26.025ZM12.3674 18.4308C12.0775 18.4308 11.8418 18.6666 11.8418 18.9564V24.5228C11.8418 24.8127 12.0775 25.0484 12.3674 25.0484C12.6572 25.0484 12.893 24.8127 12.893 24.5228V18.9564C12.893 18.6666 12.6572 18.4308 12.3674 18.4308Z" fill="black"/>
<path d="M11.3274 25.1668C9.44443 25.1668 7.9126 23.6348 7.9126 21.7518C7.9126 19.8688 9.44443 18.3367 11.3274 18.3367C11.344 18.3367 11.3606 18.3373 11.377 18.3385C11.5161 18.3404 11.646 18.4018 11.7372 18.5068C11.8282 18.6119 11.8685 18.751 11.8507 18.8891L11.8464 18.9209C11.8446 18.9336 11.8423 18.9463 11.8415 18.9592V24.5227C11.8415 24.55 11.8474 24.5762 11.8513 24.6024C11.8726 24.7414 11.8329 24.8828 11.7423 24.9904C11.6517 25.0981 11.5192 25.1615 11.3786 25.1645C11.3647 25.166 11.3464 25.1668 11.3274 25.1668ZM10.8651 19.3572C9.74092 19.5738 8.88896 20.5652 8.88896 21.7518C8.88896 22.9383 9.74072 23.9297 10.8651 24.1463V19.3572Z" fill="black"/>
<path d="M18.7893 32.959C18.751 32.959 18.7124 32.9574 18.6735 32.9547C17.8661 32.892 17.1122 32.7717 16.4315 32.5973C16.0442 32.498 15.7184 32.2539 15.5147 31.9096C15.311 31.5654 15.2534 31.1625 15.3526 30.775C15.452 30.3875 15.6962 30.0619 16.0405 29.858C16.3848 29.6541 16.7879 29.5965 17.1753 29.6963C17.6878 29.8275 18.2694 29.9191 18.9042 29.9686C19.303 29.9996 19.6657 30.184 19.9258 30.4879C20.186 30.7918 20.3122 31.1787 20.2811 31.5775C20.221 32.3521 19.5657 32.959 18.7893 32.959ZM16.802 30.6256C16.71 30.6256 16.6194 30.6502 16.5381 30.6984C16.4184 30.7693 16.3333 30.8826 16.2987 31.0176C16.2641 31.1523 16.284 31.2924 16.3549 31.4121C16.4258 31.5318 16.5391 31.6166 16.6737 31.6512C17.2999 31.8117 17.9975 31.9225 18.7477 31.9809C18.7608 31.9818 18.7751 31.9824 18.7891 31.9824C19.0587 31.9824 19.2864 31.7713 19.3073 31.5019C19.318 31.3633 19.2743 31.2287 19.1838 31.123C19.0934 31.0172 18.9672 30.9531 18.8284 30.9424C18.1376 30.8887 17.4999 30.7877 16.9323 30.6424C16.8893 30.6311 16.8456 30.6256 16.802 30.6256Z" fill="black"/>
<path d="M21.5764 37.585H19.2258C18.7713 37.585 18.357 37.3172 18.1703 36.9027L16.7795 33.8154C16.751 33.7524 16.7363 33.684 16.7363 33.6149V32.2705C16.7363 32.125 16.8012 31.9871 16.9133 31.8943C17.0254 31.8018 17.1732 31.7639 17.3158 31.7908C17.7799 31.8791 18.2617 31.943 18.748 31.9807C18.7611 31.9816 18.7754 31.9822 18.7895 31.9822C19.0211 31.9822 19.2268 31.8264 19.2895 31.6031C19.3527 31.3774 19.5674 31.2285 19.8014 31.2486C20.0117 31.2666 20.1867 31.275 20.3523 31.275C21.4316 31.275 22.5029 31.0024 23.4502 30.4865C23.6016 30.4043 23.785 30.4078 23.933 30.4955C24.0811 30.5836 24.1719 30.7432 24.1719 30.9152V33.6145C24.1719 33.6883 24.1553 33.7609 24.123 33.8274L22.6184 36.9316C22.426 37.3287 22.0172 37.585 21.5764 37.585ZM17.7127 33.51L19.0604 36.5016C19.0895 36.5664 19.1543 36.6082 19.2256 36.6082H21.5762C21.6451 36.6082 21.7092 36.5682 21.7391 36.5063L23.1949 33.5027V31.6881C22.2959 32.0584 21.3268 32.2516 20.3518 32.2516C20.2584 32.2516 20.1635 32.2494 20.0635 32.2447C19.7764 32.7104 19.2469 32.9967 18.673 32.9543C18.3496 32.9291 18.0285 32.8934 17.7125 32.8473V33.51H17.7127Z" fill="black"/>
<path d="M15.8207 31.3973C15.7686 31.3973 15.7156 31.3889 15.6637 31.3713C12.151 30.1777 11.8729 27.7865 11.8627 27.6854C11.8611 27.6692 11.8604 27.6529 11.8604 27.6367V25.6551C11.8604 25.3854 12.0789 25.1668 12.3486 25.1668C12.6184 25.1668 12.8369 25.3854 12.8369 25.6551V27.6053C12.868 27.8051 13.2111 29.5065 15.9779 30.4465C16.2334 30.5332 16.3699 30.8106 16.2832 31.0658C16.2141 31.2693 16.0242 31.3973 15.8207 31.3973Z" fill="black"/>
<path d="M9.49517 19.9598C9.42349 19.9598 9.35142 19.9439 9.28442 19.9119C9.11489 19.8307 9.00708 19.6596 9.00708 19.4715V16.8068C9.00708 10.5486 14.0985 5.45743 20.3565 5.45743C20.425 5.45743 20.4928 5.45958 20.5606 5.46192L20.6485 5.46465C20.9131 5.47149 21.1243 5.6879 21.1243 5.95274V14.1895C21.1243 14.8141 21.4686 15.3889 22.0231 15.6891C22.2395 15.8064 22.3348 16.0664 22.2454 16.2957C22.1647 16.5022 21.9577 16.6256 21.7426 16.6043C19.0409 19.9461 15.0657 19.4975 13.7768 19.243C13.6881 19.365 13.5442 19.4445 13.3815 19.4445C13.1264 19.4445 12.9172 19.2492 12.8952 18.9998C12.8938 18.9869 12.8928 18.9736 12.8924 18.9619C12.8922 18.9512 12.8922 18.9406 12.8924 18.9299C12.8788 18.6523 12.6485 18.4307 12.3674 18.4307C12.1176 18.4307 11.9081 18.6057 11.8547 18.8395C11.8543 18.8559 11.853 18.8725 11.8508 18.8889L11.8463 18.9217C11.8446 18.9338 11.8424 18.9459 11.8417 18.9584V18.9678C11.8372 19.2334 11.6204 19.4459 11.3534 19.4459C11.2329 19.4459 11.1225 19.402 11.0375 19.3293C10.5883 19.3818 10.1639 19.5598 9.80122 19.8516C9.71274 19.923 9.60454 19.9598 9.49517 19.9598ZM20.1477 6.43614C14.5241 6.54786 9.98345 11.157 9.98345 16.8068V18.6139C10.3036 18.4766 10.6438 18.3883 10.9915 18.3535C11.2241 17.8246 11.7534 17.4543 12.3674 17.4543C12.9415 17.4543 13.4415 17.7779 13.694 18.2523C13.7598 18.25 13.8274 18.2564 13.8944 18.2705C15.235 18.551 18.5747 18.8883 20.9192 16.0682C20.4315 15.5734 20.1475 14.9023 20.1475 14.1895V6.43614H20.1477Z" fill="black"/>
<path d="M13.3813 19.4447C13.1263 19.4447 12.9171 19.2494 12.895 19C12.8937 18.9871 12.8927 18.9738 12.8923 18.9621C12.8921 18.9514 12.8921 18.9408 12.8923 18.9301C12.8786 18.6525 12.6483 18.4309 12.3673 18.4309C12.138 18.4309 11.938 18.5805 11.8694 18.8033C11.7983 19.0342 11.5692 19.1791 11.3302 19.1424C11.0913 19.1064 10.9146 18.9012 10.9146 18.6596V16.8068C10.9146 11.6008 15.1501 7.36523 20.3563 7.36523C20.4331 7.36523 20.5091 7.36777 20.5851 7.37031L20.6507 7.37246C20.9144 7.38066 21.1239 7.59668 21.1239 7.86055V14.1895C21.1239 14.8141 21.4683 15.3889 22.0228 15.6891C22.2392 15.8064 22.3345 16.0664 22.245 16.2957C22.1644 16.5021 21.9573 16.6256 21.7423 16.6043C19.0405 19.9461 15.0653 19.4975 13.7765 19.243C13.688 19.3652 13.544 19.4447 13.3813 19.4447ZM13.7169 18.252C13.7757 18.252 13.8353 18.258 13.8946 18.2705C15.2353 18.551 18.5749 18.8883 20.9194 16.0682C20.4317 15.5734 20.1478 14.9023 20.1478 14.1895V8.34434C15.5761 8.45547 11.8913 12.209 11.8913 16.8068V17.5313C12.0417 17.4811 12.2019 17.4541 12.3675 17.4541C12.9415 17.4541 13.4415 17.7777 13.694 18.2521C13.7017 18.2521 13.7093 18.252 13.7169 18.252Z" fill="black"/>
<path d="M40.282 22.9697C40.0185 22.9697 39.7613 22.8637 39.5707 22.6643L36.8381 19.8076C36.7967 19.7643 36.7387 19.7395 36.6789 19.7395H27.2429C26.5066 19.7395 25.8183 19.4422 25.3047 18.9023C25.125 18.7135 25.1254 18.4168 25.3056 18.2283L27.1855 16.2631C27.4101 16.0281 27.7256 15.8934 28.0506 15.8934H38.5902C39.5299 15.8934 40.2943 15.1289 40.2943 14.1895V3.35782C40.2943 3.08809 40.5129 2.86954 40.7826 2.86954H41.9015C43.3795 2.86954 44.5822 4.07208 44.5822 5.55001V17.059C44.5822 18.5369 43.3797 19.7395 41.9015 19.7395H41.4914C41.3699 19.7395 41.2709 19.8383 41.2709 19.96V21.9822C41.2709 22.3877 41.0279 22.7471 40.6515 22.8981C40.5312 22.9463 40.4058 22.9697 40.282 22.9697ZM26.3758 18.5221C26.6363 18.6793 26.9332 18.7629 27.2428 18.7629H36.6787C37.0037 18.7629 37.3189 18.8977 37.5437 19.1326L40.2764 21.9893L40.2939 19.96C40.2939 19.3 40.8308 18.7629 41.491 18.7629H41.9012C42.8408 18.7629 43.6053 17.9984 43.6053 17.059V5.5502C43.6053 4.61055 42.8408 3.8463 41.9012 3.8463H41.2705V14.1895C41.2705 15.6674 40.068 16.8699 38.5898 16.8699H28.0502C27.9902 16.8699 27.9322 16.8947 27.891 16.9381L26.3758 18.5221Z" fill="black"/>
<path d="M20.3522 32.2518C20.1542 32.2518 19.9467 32.2424 19.7178 32.2231C19.5727 32.2108 19.4407 32.1344 19.3577 32.0147C19.2747 31.8949 19.2495 31.7445 19.2889 31.6043C19.2987 31.5694 19.3051 31.535 19.3075 31.5022C19.3182 31.3633 19.2745 31.2287 19.184 31.1231C19.0936 31.0172 18.9674 30.9531 18.8286 30.9424C18.1381 30.8887 17.5002 30.7877 16.9327 30.6424C16.7731 30.6014 16.6069 30.6391 16.4758 30.7459C16.3022 30.8875 16.0542 30.8926 15.8747 30.7582C13.994 29.3502 12.8651 27.1178 12.8547 24.7867C12.8545 24.7434 12.8602 24.7002 12.8713 24.6582C12.8862 24.6027 12.8932 24.5598 12.8932 24.5229V18.9772C12.8928 18.9719 12.8926 18.9668 12.8924 18.9619C12.8901 18.8811 12.9077 18.801 12.9438 18.7287C13.119 18.3785 13.51 18.1899 13.8948 18.2705C15.2547 18.5551 18.6713 18.8983 21.0198 15.9447C21.2309 15.6795 21.5807 15.5619 21.9098 15.6449C21.9493 15.6549 21.9872 15.6695 22.0231 15.6891C22.4266 15.9076 22.7809 15.8992 23.0399 15.8928C23.1252 15.8908 23.1985 15.8901 23.2575 15.8936C23.9088 15.9037 24.4356 16.4367 24.4356 17.0904V19.1127L25.3059 18.2283C25.3981 18.132 25.5254 18.0776 25.6588 18.0776H25.6594C25.793 18.0777 25.9206 18.1326 26.0127 18.2293C26.3467 18.5803 26.8085 18.7654 27.3096 18.7627C27.3469 18.7621 27.3891 18.7615 27.4442 18.7727C27.6717 18.819 27.835 19.019 27.835 19.2512V24.5229C27.835 24.5508 27.8409 24.5776 27.845 24.6043C27.8491 24.6291 27.8508 24.6543 27.8508 24.6795V24.7535C27.8504 28.8881 24.4868 32.2518 20.3522 32.2518ZM20.2745 31.2746C20.3006 31.275 20.3266 31.2752 20.3522 31.2752C23.9483 31.2752 26.8739 28.3496 26.8739 24.7535V24.7166C26.8661 24.6631 26.8581 24.5971 26.8581 24.5229V19.7072C26.4303 19.643 26.034 19.4834 25.6909 19.2383L25.1586 19.7947C24.8784 20.0877 24.4542 20.1793 24.0782 20.0285C23.702 19.8776 23.4588 19.5182 23.4588 19.1127V17.0904C23.4588 16.9688 23.36 16.8699 23.2383 16.8699C23.2247 16.8699 23.211 16.8693 23.1975 16.8682C23.1622 16.8651 23.1172 16.8678 23.0635 16.869C22.785 16.8756 22.2874 16.8879 21.7219 16.6295C19.0827 19.8678 15.244 19.5162 13.8696 19.2606V24.5227C13.8696 24.6246 13.8573 24.7297 13.8317 24.8414C13.8579 26.7399 14.7372 28.5584 16.2063 29.7766C16.5092 29.6438 16.8516 29.6127 17.1754 29.6963C17.6879 29.8276 18.2698 29.9192 18.9042 29.9684C19.303 29.9994 19.6657 30.1838 19.9258 30.4877C20.1194 30.7139 20.2387 30.986 20.2745 31.2746ZM13.3803 18.9473H13.3823H13.3803Z" fill="black"/>
<path d="M24.4473 20.1002C24.3234 20.1002 24.1982 20.0768 24.0779 20.0285C23.7018 19.8775 23.4586 19.5182 23.4586 19.1127V17.0904C23.4586 16.9687 23.3598 16.8699 23.2381 16.8699H22.8279C21.35 16.8699 20.1475 15.6674 20.1475 14.1895V2.68047C20.1477 1.20254 21.35 0 22.8281 0H38.59C40.068 0 41.2707 1.20254 41.2707 2.68047V14.1895C41.2707 15.6674 40.0682 16.8699 38.59 16.8699H28.0504C27.9904 16.8699 27.9324 16.8947 27.8912 16.9381L25.1586 19.7947C24.968 19.9941 24.7107 20.1002 24.4473 20.1002ZM22.8281 0.976562C21.8885 0.976562 21.1242 1.74102 21.1242 2.68047V14.1895C21.1242 15.1291 21.8887 15.8934 22.8281 15.8934H23.2383C23.8982 15.8934 24.4354 16.4305 24.4354 17.0904V19.1127L27.1855 16.2631C27.4102 16.0281 27.7256 15.8934 28.0506 15.8934H38.5902C39.5299 15.8934 40.2943 15.1289 40.2943 14.1895V2.68047C40.2943 1.74082 39.5299 0.976562 38.5902 0.976562H22.8281Z" fill="black"/>
<path d="M25.4883 10.2539C24.6268 10.2539 23.9258 9.55293 23.9258 8.69141C23.9258 7.82988 24.6268 7.12891 25.4883 7.12891C26.3498 7.12891 27.0508 7.82988 27.0508 8.69141C27.0508 9.55293 26.3498 10.2539 25.4883 10.2539ZM25.4883 8.10547C25.1652 8.10547 24.9023 8.36836 24.9023 8.69141C24.9023 9.01445 25.1652 9.27734 25.4883 9.27734C25.8113 9.27734 26.0742 9.01445 26.0742 8.69141C26.0742 8.36836 25.8113 8.10547 25.4883 8.10547Z" fill="black"/>
<path d="M30.4199 10.2539C29.5584 10.2539 28.8574 9.55293 28.8574 8.69141C28.8574 7.82988 29.5584 7.12891 30.4199 7.12891C31.2814 7.12891 31.9824 7.82988 31.9824 8.69141C31.9824 9.55293 31.2814 10.2539 30.4199 10.2539ZM30.4199 8.10547C30.0969 8.10547 29.834 8.36836 29.834 8.69141C29.834 9.01445 30.0969 9.27734 30.4199 9.27734C30.743 9.27734 31.0059 9.01445 31.0059 8.69141C31.0059 8.36836 30.743 8.10547 30.4199 8.10547Z" fill="black"/>
<path d="M35.3516 10.2539C34.49 10.2539 33.7891 9.55293 33.7891 8.69141C33.7891 7.82988 34.49 7.12891 35.3516 7.12891C36.2131 7.12891 36.9141 7.82988 36.9141 8.69141C36.9141 9.55293 36.2131 10.2539 35.3516 10.2539ZM35.3516 8.10547C35.0285 8.10547 34.7656 8.36836 34.7656 8.69141C34.7656 9.01445 35.0285 9.27734 35.3516 9.27734C35.6746 9.27734 35.9375 9.01445 35.9375 8.69141C35.9375 8.36836 35.6746 8.10547 35.3516 8.10547Z" fill="black"/>
</g>
<defs>
<clipPath id="clip0">
<rect width="50" height="50" fill="white"/>
</clipPath>
</defs>
</svg>
