<svg width="30" height="30" viewBox="0 0 30 30" fill="none" xmlns="http://www.w3.org/2000/svg">
<path d="M30 15C30 6.72919 23.2708 0 15 0C12.4069 0 9.88064 0.671613 7.64081 1.93548H5.80645V0H2.90323V6.13887C1.00645 8.72274 0 11.7808 0 15C0 23.2713 6.72919 30 15 30C16.8431 30 18.6421 29.6685 20.3477 29.0173C21.3213 29.6361 22.4729 30 23.7097 30C25.2184 30 26.6777 29.4576 27.8187 28.4729L27.1863 27.7403C26.221 28.5735 24.9866 29.0323 23.7097 29.0323C20.775 29.0323 18.3871 26.6444 18.3871 23.7097C18.3871 20.775 20.775 18.3871 23.7097 18.3871C26.6444 18.3871 29.0323 20.775 29.0323 23.7097C29.0323 24.9363 28.6268 26.0894 27.8589 27.044L28.6132 27.6508C29.5074 26.5384 30 25.139 30 23.7097C30 22.4719 29.6356 21.3203 29.0163 20.3463C29.6671 18.6402 30 16.8431 30 15ZM7.74194 4.83871H8.70968V5.80645V11.6129H7.74194V4.83871ZM5.80645 2.90323H6.77419V3.87097V11.6129H5.80645V2.90323ZM3.87097 0.967742H4.83871V1.93548V11.6129H3.87097V0.967742ZM14.5161 29.0202C7.16323 28.769 1.23097 22.8368 0.979839 15.4839H14.5161V29.0202ZM14.5161 14.5161H0.987097C1.06597 12.1606 1.72016 9.90968 2.90323 7.90306V12.5806H4.83871H5.80645H6.77419H7.74194H8.70968H9.67742H10.6452H11.6129H13.5484V7.74194H11.6129V5.80645H9.67742V3.87097H7.74194V2.99613C9.78919 1.75548 12.1156 1.06694 14.5161 0.984677V14.5161ZM9.67742 11.6129V6.77419H10.6452V7.74194V11.6129H9.67742ZM11.6129 11.6129V8.70968H12.5806V11.6129H11.6129ZM29.0202 14.5161H24.8777L28.4361 10.9577C28.7777 12.0905 28.9781 13.2832 29.0202 14.5161ZM26.5819 7.08871L21.1776 12.4931L21.8618 13.1773L27.1118 7.92726C27.4873 8.5679 27.8129 9.24048 28.0848 9.94065L23.5094 14.5161H20.5229L21.1485 13.8905L20.4644 13.2063L19.1545 14.5161H16.1681L25.2518 5.43242C25.7347 5.95016 26.1803 6.50274 26.5819 7.08871ZM15.4839 0.979839C16.7168 1.02194 17.9095 1.22226 19.0423 1.56387L15.4839 5.12226V0.979839ZM15.4839 10.8455L21.3644 4.965L20.6802 4.28081L15.4839 9.4771V6.49064L20.0594 1.91516C20.7595 2.18661 21.4321 2.51226 22.0727 2.88823L21.2932 3.66774L21.9774 4.35194L22.9113 3.41806C23.4973 3.81968 24.0498 4.26484 24.5676 4.74823L15.4839 13.8319V10.8455ZM23.7097 17.4194C20.2413 17.4194 17.4194 20.2413 17.4194 23.7097C17.4194 25.5295 18.2008 27.166 19.44 28.3156C18.165 28.741 16.8387 28.9756 15.4839 29.0211V15.4839H29.0211C28.9756 16.8382 28.739 18.1635 28.3142 19.4385C27.1645 18.1998 25.5285 17.4194 23.7097 17.4194Z" fill="#6B4F81"/>
</svg>
